Coordinates
version=1
nRows=11
nColumns=63
inDegrees=yes

Units are S.I. units (second, meters, Newtons, ...)
If the header above contains a line with 'inDegrees', this indicates whether rotational values are in degrees (yes) or radians (no).

endheader
time	pelvis_tilt	pelvis_list	pelvis_rotation	pelvis_tx	pelvis_ty	pelvis_tz	hip_flexion_r	hip_adduction_r	hip_rotation_r	knee_angle_r	knee_angle_r_beta	ankle_angle_r	subtalar_angle_r	mtp_angle_r	hip_flexion_l	hip_adduction_l	hip_rotation_l	knee_angle_l	knee_angle_l_beta	ankle_angle_l	subtalar_angle_l	mtp_angle_l	L5_S1_Flex_Ext	L5_S1_Lat_Bending	L5_S1_axial_rotation	L4_L5_Flex_Ext	L4_L5_Lat_Bending	L4_L5_axial_rotation	L3_L4_Flex_Ext	L3_L4_Lat_Bending	L3_L4_axial_rotation	L2_L3_Flex_Ext	L2_L3_Lat_Bending	L2_L3_axial_rotation	L1_L2_Flex_Ext	L1_L2_Lat_Bending	L1_L2_axial_rotation	L1_T12_Flex_Ext	L1_T12_Lat_Bending	L1_T12_axial_rotation	Abs_r3	Abs_r2	Abs_r1	Abs_t1	Abs_t2	neck_flexion	neck_bending	neck_rotation	arm_flex_r	arm_add_r	arm_rot_r	elbow_flex_r	pro_sup_r	wrist_flex_r	wrist_dev_r	arm_flex_l	arm_add_l	arm_rot_l	elbow_flex_l	pro_sup_l	wrist_flex_l	wrist_dev_l
0.000000	-1.309967	-4.012466	85.764620	0.321714	0.978633	0.397163	0.392845	2.943713	2.978738	5.340352	0.093207	23.538323	-8.389227	0.000000	6.653941	-1.076088	5.656652	16.243186	0.283497	29.089997	-11.712830	0.000000	0.218488	0.009273	1.461391	0.405753	0.012333	1.552728	0.358953	0.022546	1.552728	0.249710	0.022546	1.278717	0.202888	0.018909	1.187380	0.124844	0.014363	1.096044	1.560635	0.104894	8.127820	0.000000	0.000000	27.050904	-1.674628	-17.355573	1.905560	-18.567771	44.089859	71.205246	89.463489	15.411777	5.096881	14.609326	-18.995268	60.548367	69.400645	59.104235	12.176940	17.569272
0.016949	-1.253168	-3.989480	85.871666	0.321798	0.979183	0.397158	0.333302	3.029904	4.855073	4.985865	0.087020	23.166333	-10.530017	0.000000	6.806860	-1.211980	5.038770	16.560730	0.289039	29.355286	-11.364773	0.000000	0.217919	0.006761	1.568462	0.404697	0.008992	1.666491	0.358018	0.016438	1.666491	0.249059	0.016438	1.372405	0.202359	0.013786	1.274376	0.124519	0.010472	1.176347	1.556571	0.076477	8.723317	0.000000	0.000000	27.063506	-2.309332	-19.079495	1.195772	-18.235269	43.133055	70.427065	88.701798	15.303951	4.700604	15.344168	-18.486793	61.493071	68.319521	57.693385	12.708362	18.578604
0.033898	-1.205736	-3.969845	85.956834	0.321860	0.979608	0.397181	0.298129	3.099778	6.312991	4.726431	0.082492	22.950436	-12.162281	0.000000	6.905249	-1.322146	4.555627	16.768499	0.292666	29.585484	-11.080784	0.000000	0.216713	0.005599	1.631564	0.402457	0.007447	1.733536	0.356037	0.013614	1.733536	0.247681	0.013614	1.427618	0.201239	0.011418	1.325645	0.123830	0.008673	1.223673	1.547956	0.063342	9.074267	0.000000	0.000000	27.053488	-2.755281	-20.281132	0.748026	-17.956096	42.648300	69.689553	88.014868	15.190595	4.313284	15.789287	-18.129557	62.066647	67.516637	56.589488	13.051630	19.457047
0.050847	-1.167409	-3.954171	86.020033	0.321902	0.979918	0.397229	0.286253	3.154196	7.391272	4.555070	0.079501	22.871206	-13.334335	0.000000	6.955112	-1.408514	4.191651	16.876921	0.294558	29.783900	-10.853566	0.000000	0.215007	0.005644	1.656372	0.399289	0.007507	1.759895	0.353234	0.013724	1.759895	0.245731	0.013724	1.449325	0.199655	0.011510	1.345802	0.122855	0.008743	1.242279	1.535770	0.063849	9.212244	0.000000	0.000000	27.024387	-3.034260	-21.016508	0.528413	-17.724466	42.572875	68.992842	87.399099	15.070259	3.939987	15.976905	-17.906599	62.316393	66.958740	55.770971	13.228178	20.202866
0.067797	-1.137919	-3.943064	86.061176	0.321925	0.980124	0.397299	0.296598	3.194019	8.128697	4.464803	0.077926	22.909216	-14.094497	0.000000	6.962451	-1.473013	3.931272	16.896427	0.294898	29.953841	-10.675819	0.000000	0.212938	0.006750	1.648565	0.395447	0.008978	1.751600	0.349835	0.016413	1.751600	0.243366	0.016413	1.442494	0.197734	0.013765	1.339459	0.121673	0.010456	1.236423	1.520993	0.076361	9.168822	0.000000	0.000000	26.979745	-3.168056	-21.341647	0.503019	-17.534594	42.844059	68.337069	86.850897	14.941497	3.585780	15.939239	-17.800960	62.289608	66.612580	55.216259	13.259440	20.814327
0.084746	-1.117002	-3.937134	86.080172	0.321928	0.980234	0.397390	0.328090	3.220107	8.564048	4.448651	0.077644	23.045041	-14.491083	0.000000	6.933270	-1.517573	3.758919	16.837445	0.293869	30.098618	-10.540248	0.000000	0.210643	0.008773	1.613819	0.391185	0.011668	1.714683	0.346065	0.021330	1.714683	0.240744	0.021330	1.412091	0.195603	0.017889	1.311228	0.120361	0.013589	1.210364	1.504601	0.099237	8.975576	0.000000	0.000000	26.923100	-3.178457	-21.312574	0.637934	-17.380696	43.399132	67.722367	86.366664	14.802860	3.255732	15.708511	-17.795681	62.033589	66.444904	54.903779	13.166847	21.289694
0.101695	-1.104392	-3.936988	86.076932	0.321914	0.980258	0.397497	0.379656	3.233322	8.736104	4.499635	0.078533	23.259252	-14.572409	0.000000	6.873571	-1.544121	3.659020	16.710403	0.291652	30.221538	-10.439555	0.000000	0.208259	0.011566	1.557812	0.386758	0.015383	1.655175	0.342149	0.028122	1.655175	0.238020	0.028122	1.363085	0.193390	0.023586	1.265722	0.118999	0.017916	1.168359	1.487575	0.130839	8.664081	0.000000	0.000000	26.857990	-3.087248	-20.985312	0.899247	-17.256987	44.175374	67.148872	85.942802	14.652900	2.954908	15.316940	-17.873802	61.595637	66.422460	54.811955	12.971834	21.627233
0.118644	-1.099824	-3.943235	86.051368	0.321882	0.980206	0.397620	0.450219	3.234523	8.683647	4.610775	0.080473	23.532424	-14.386792	0.000000	6.789358	-1.554587	3.616005	16.525731	0.288428	30.325910	-10.366441	0.000000	0.205924	0.014986	1.486220	0.382421	0.019932	1.579109	0.338312	0.036438	1.579109	0.235350	0.036438	1.300443	0.191221	0.030560	1.207554	0.117665	0.023214	1.114665	1.470894	0.169528	8.265911	0.000000	0.000000	26.787956	-2.916217	-20.415885	1.253046	-17.157682	45.110065	66.616718	85.575716	14.490169	2.688376	14.796747	-18.018364	61.023049	66.511998	54.919214	12.695834	21.825209
0.135593	-1.103033	-3.956483	86.003391	0.321833	0.980088	0.397754	0.538707	3.224571	8.445458	4.775092	0.083341	23.845131	-13.982549	0.000000	6.686632	-1.550899	3.614302	16.293858	0.284381	30.415043	-10.313610	0.000000	0.203774	0.018888	1.404722	0.378428	0.025121	1.492517	0.334780	0.045924	1.492517	0.232893	0.045924	1.229132	0.189224	0.038516	1.141336	0.116436	0.029257	1.053541	1.455535	0.213664	7.812641	0.000000	0.000000	26.716537	-2.687151	-19.660317	1.665419	-17.076996	46.140484	66.126039	85.261808	14.313218	2.461203	14.180150	-18.212406	60.363125	66.680265	55.203980	12.360279	21.881886
0.152542	-1.113753	-3.977340	85.932910	0.321769	0.979913	0.397899	0.644043	3.204329	8.060317	4.985607	0.087015	24.177945	-13.407997	0.000000	6.571399	-1.534986	3.638340	16.025212	0.279693	30.492245	-10.273764	0.000000	0.201946	0.023126	1.318993	0.375033	0.030758	1.401430	0.331777	0.056229	1.401430	0.230804	0.056229	1.154119	0.187527	0.047159	1.071682	0.115392	0.035823	0.989245	1.442478	0.261610	7.335845	0.000000	0.000000	26.647271	-2.421837	-18.774632	2.102456	-17.009144	47.203912	65.676971	84.997482	14.120601	2.278457	13.499371	-18.438971	59.663162	66.894010	55.644681	11.986602	21.795530
0.169492	-1.131719	-4.006415	85.839837	0.321690	0.979690	0.398050	0.765154	3.174655	7.567005	5.235340	0.091374	24.511441	-12.711452	0.000000	6.449660	-1.508777	3.672549	15.730223	0.274544	30.560826	-10.239604	0.000000	0.200577	0.027557	1.234712	0.372492	0.036650	1.311881	0.329528	0.067001	1.311881	0.229240	0.067001	1.080373	0.186256	0.056193	1.003203	0.114610	0.042685	0.926034	1.432702	0.311725	6.867098	0.000000	0.000000	26.583698	-2.142061	-17.814855	2.530244	-16.948341	48.237628	65.269648	84.779139	13.910868	2.145204	12.786628	-18.681097	58.970460	67.119980	56.219742	11.596237	21.564406
